<svg width="13" height="11" viewBox="0 0 13 11" fill="none" xmlns="http://www.w3.org/2000/svg">
<path d="M11.1469 2.43791L8.8162 0.792725L8.16258 1.44483L10.4933 3.09001L11.1469 2.43791ZM3.99259 1.44483L3.34404 0.792725L1.01331 2.43364L1.66692 3.08575L3.99259 1.44483ZM6.33346 3.40967H5.57344V5.96695L7.98018 7.18165L8.36019 6.65741L6.33346 5.64729V3.40967ZM6.08012 1.70482C3.56191 1.70482 1.51999 3.42246 1.51999 5.54073C1.51999 7.65901 3.55685 9.37665 6.08012 9.37665C8.59833 9.37665 10.6403 7.65901 10.6403 5.54073C10.6403 3.42246 8.59833 1.70482 6.08012 1.70482ZM6.08012 8.52422C4.11926 8.52422 2.53335 7.19018 2.53335 5.54073C2.53335 3.89129 4.11926 2.55724 6.08012 2.55724C8.04098 2.55724 9.62689 3.89129 9.62689 5.54073C9.62689 7.19018 8.04098 8.52422 6.08012 8.52422Z" fill="#D08270"/>
</svg>
