<svg width="201" height="77" viewBox="0 0 201 77" fill="none" xmlns="http://www.w3.org/2000/svg">
<path d="M13.0185 59V31.7273H20.3516V36.4858H20.6357C21.1328 34.7931 21.9673 33.5147 23.1392 32.6506C24.3111 31.7746 25.6605 31.3366 27.1875 31.3366C27.5663 31.3366 27.9747 31.3603 28.4126 31.4077C28.8506 31.455 29.2353 31.5201 29.5668 31.603V38.3146C29.2116 38.2081 28.7204 38.1134 28.093 38.0305C27.4657 37.9477 26.8916 37.9062 26.3707 37.9062C25.258 37.9062 24.2637 38.1489 23.3878 38.6342C22.5237 39.1077 21.8371 39.7706 21.3281 40.6229C20.831 41.4751 20.5824 42.4576 20.5824 43.5703V59H13.0185ZM44.6369 59.5327C41.8315 59.5327 39.4167 58.9645 37.3926 57.8281C35.3803 56.6799 33.8296 55.0582 32.7406 52.9631C31.6516 50.8561 31.1071 48.3643 31.1071 45.4879C31.1071 42.6825 31.6516 40.2204 32.7406 38.1016C33.8296 35.9827 35.3625 34.3314 37.3393 33.1477C39.3279 31.964 41.6599 31.3722 44.335 31.3722C46.1343 31.3722 47.8092 31.6622 49.3599 32.2422C50.9224 32.8104 52.2837 33.6686 53.4437 34.8168C54.6156 35.965 55.527 37.4091 56.1781 39.1491C56.8291 40.8774 57.1547 42.9015 57.1547 45.2216V47.299H34.1255V42.6115H50.0346C50.0346 41.5225 49.7979 40.5578 49.3244 39.7173C48.8509 38.8769 48.194 38.2199 47.3535 37.7464C46.5249 37.2611 45.5602 37.0185 44.4593 37.0185C43.3111 37.0185 42.2931 37.2848 41.4054 37.8175C40.5294 38.3383 39.8429 39.0426 39.3457 39.9304C38.8485 40.8063 38.594 41.7829 38.5822 42.8601V47.3168C38.5822 48.6662 38.8308 49.8321 39.3279 50.8146C39.8369 51.7971 40.5531 52.5547 41.4764 53.0874C42.3997 53.62 43.4946 53.8864 44.7612 53.8864C45.6016 53.8864 46.371 53.768 47.0694 53.5312C47.7678 53.2945 48.3656 52.9394 48.8627 52.4659C49.3599 51.9924 49.7387 51.4124 49.9991 50.7259L56.9949 51.1875C56.6397 52.8684 55.9118 54.3362 54.8109 55.5909C53.7219 56.8338 52.3133 57.8045 50.585 58.5028C48.8687 59.1894 46.8859 59.5327 44.6369 59.5327ZM69.8677 59.5149C68.1277 59.5149 66.577 59.2131 65.2157 58.6094C63.8545 57.9938 62.7773 57.0883 61.9842 55.8928C61.2029 54.6854 60.8123 53.1821 60.8123 51.3828C60.8123 49.8677 61.0905 48.5952 61.6468 47.5653C62.2032 46.5355 62.9608 45.7069 63.9196 45.0795C64.8784 44.4522 65.9674 43.9787 67.1866 43.6591C68.4177 43.3395 69.7079 43.1146 71.0574 42.9844C72.6435 42.8187 73.9219 42.6648 74.8926 42.5227C75.8632 42.3688 76.5675 42.1439 77.0055 41.848C77.4435 41.5521 77.6625 41.1141 77.6625 40.5341V40.4276C77.6625 39.303 77.3074 38.433 76.5971 37.8175C75.8987 37.2019 74.9044 36.8942 73.6142 36.8942C72.2529 36.8942 71.1698 37.196 70.3649 37.7997C69.56 38.3916 69.0273 39.1373 68.7669 40.0369L61.7711 39.4688C62.1262 37.8116 62.8246 36.3793 63.8663 35.1719C64.908 33.9527 66.2515 33.0175 67.8968 32.3665C69.554 31.7036 71.4717 31.3722 73.6497 31.3722C75.1648 31.3722 76.6149 31.5497 77.9998 31.9048C79.3966 32.2599 80.6336 32.8104 81.7108 33.5561C82.7998 34.3018 83.658 35.2607 84.2853 36.4325C84.9127 37.5926 85.2264 38.9834 85.2264 40.6051V59H78.0531V55.218H77.84C77.402 56.0703 76.8161 56.822 76.0822 57.473C75.3483 58.1122 74.4664 58.6153 73.4366 58.9822C72.4068 59.3374 71.2172 59.5149 69.8677 59.5149ZM72.0339 54.2947C73.1466 54.2947 74.1291 54.0758 74.9814 53.6378C75.8336 53.188 76.5024 52.5843 76.9877 51.8267C77.4731 51.0691 77.7157 50.2109 77.7157 49.2521V46.358C77.479 46.5118 77.1535 46.6539 76.7392 46.7841C76.3367 46.9025 75.881 47.0149 75.372 47.1214C74.863 47.2161 74.354 47.3049 73.845 47.3878C73.336 47.4588 72.8743 47.5239 72.46 47.5831C71.5723 47.7133 70.7969 47.9205 70.1341 48.2045C69.4712 48.4886 68.9563 48.8733 68.5893 49.3587C68.2224 49.8321 68.0389 50.424 68.0389 51.1342C68.0389 52.1641 68.4118 52.9512 69.1575 53.4957C69.9151 54.0284 70.8739 54.2947 72.0339 54.2947ZM103.417 59.5327C100.624 59.5327 98.2206 58.9408 96.2083 57.7571C94.2078 56.5616 92.669 54.9044 91.5918 52.7855C90.5265 50.6667 89.9938 48.2282 89.9938 45.4702C89.9938 42.6766 90.5324 40.2263 91.6096 38.1193C92.6986 36.0005 94.2433 34.3492 96.2438 33.1655C98.2443 31.9699 100.624 31.3722 103.382 31.3722C105.761 31.3722 107.844 31.8042 109.632 32.6683C111.419 33.5324 112.834 34.7457 113.875 36.3082C114.917 37.8707 115.491 39.7055 115.597 41.8125H108.46C108.258 40.4512 107.726 39.3563 106.862 38.5277C106.009 37.6873 104.891 37.267 103.506 37.267C102.334 37.267 101.31 37.5866 100.434 38.2259C99.57 38.8532 98.8953 39.7706 98.41 40.978C97.9247 42.1854 97.682 43.6473 97.682 45.3636C97.682 47.1037 97.9187 48.5833 98.3922 49.8026C98.8775 51.0218 99.5582 51.951 100.434 52.5902C101.31 53.2294 102.334 53.549 103.506 53.549C104.37 53.549 105.145 53.3714 105.832 53.0163C106.53 52.6612 107.104 52.1463 107.554 51.4716C108.016 50.785 108.318 49.9624 108.46 49.0036H115.597C115.479 51.0869 114.911 52.9216 113.893 54.5078C112.887 56.0821 111.496 57.3132 109.72 58.201C107.945 59.0888 105.844 59.5327 103.417 59.5327ZM134.947 31.7273V37.4091H118.523V31.7273H134.947ZM122.251 25.1932H129.815V50.6193C129.815 51.3177 129.922 51.8622 130.135 52.2528C130.348 52.6316 130.644 52.898 131.023 53.0518C131.413 53.2057 131.863 53.2827 132.372 53.2827C132.727 53.2827 133.082 53.2531 133.438 53.1939C133.793 53.1229 134.065 53.0696 134.254 53.0341L135.444 58.6626C135.065 58.781 134.532 58.9171 133.846 59.071C133.159 59.2367 132.325 59.3374 131.342 59.3729C129.519 59.4439 127.921 59.2012 126.548 58.6449C125.187 58.0885 124.128 57.2244 123.37 56.0526C122.612 54.8807 122.24 53.401 122.251 51.6136V25.1932ZM151.446 31.7273H159.01V60.3494C159.01 62.4564 158.596 64.161 157.767 65.4631C156.939 66.7652 155.749 67.718 154.198 68.3217C152.66 68.9254 150.819 69.2273 148.676 69.2273C148.416 69.2273 148.167 69.2214 147.931 69.2095C147.682 69.2095 147.422 69.2036 147.149 69.1918V63.2791C147.351 63.291 147.528 63.2969 147.682 63.2969C147.824 63.3087 147.978 63.3146 148.144 63.3146C149.363 63.3146 150.215 63.0542 150.7 62.5334C151.198 62.0244 151.446 61.255 151.446 60.2251V31.7273ZM155.21 28.2116C154.098 28.2116 153.139 27.8388 152.334 27.093C151.529 26.3355 151.127 25.4299 151.127 24.3764C151.127 23.3348 151.529 22.4411 152.334 21.6953C153.139 20.9377 154.098 20.5589 155.21 20.5589C156.347 20.5589 157.311 20.9377 158.105 21.6953C158.91 22.4411 159.312 23.3348 159.312 24.3764C159.312 25.4299 158.91 26.3355 158.105 27.093C157.311 27.8388 156.347 28.2116 155.21 28.2116ZM187.761 39.5043L180.836 39.9304C180.718 39.3385 180.463 38.8059 180.073 38.3324C179.682 37.8471 179.167 37.4624 178.528 37.1783C177.901 36.8823 177.149 36.7344 176.273 36.7344C175.101 36.7344 174.113 36.983 173.308 37.4801C172.503 37.9654 172.1 38.6165 172.1 39.4332C172.1 40.0843 172.361 40.6347 172.882 41.0845C173.403 41.5343 174.296 41.8954 175.563 42.1676L180.499 43.1619C183.15 43.7064 185.127 44.5824 186.429 45.7898C187.731 46.9972 188.382 48.5833 188.382 50.5483C188.382 52.3357 187.856 53.9041 186.802 55.2536C185.761 56.603 184.328 57.6565 182.505 58.4141C180.694 59.1598 178.605 59.5327 176.238 59.5327C172.627 59.5327 169.751 58.781 167.608 57.2777C165.478 55.7625 164.229 53.7029 163.862 51.0987L171.301 50.7081C171.526 51.8089 172.071 52.6494 172.935 53.2294C173.799 53.7976 174.906 54.0817 176.255 54.0817C177.581 54.0817 178.646 53.8272 179.451 53.3182C180.268 52.7973 180.682 52.1286 180.694 51.3118C180.682 50.6252 180.392 50.063 179.824 49.625C179.256 49.1752 178.38 48.8319 177.196 48.5952L172.473 47.6541C169.81 47.1214 167.827 46.1982 166.525 44.8842C165.235 43.5703 164.59 41.8954 164.59 39.8594C164.59 38.1075 165.063 36.5982 166.01 35.3317C166.969 34.0651 168.313 33.0885 170.041 32.402C171.781 31.7154 173.817 31.3722 176.149 31.3722C179.593 31.3722 182.304 32.1001 184.281 33.5561C186.27 35.0121 187.43 36.9948 187.761 39.5043Z" fill="white" fill-opacity="0.04"/>
</svg>
