<svg width="178" height="50" viewBox="0 0 178 50" fill="none" xmlns="http://www.w3.org/2000/svg">
<path d="M30.576 2.63636V39H23.9354L8.11506 16.1129H7.84872V39H0.160511V2.63636H6.90767L22.6037 25.5057H22.9233V2.63636H30.576ZM49.1085 39.5327C46.3504 39.5327 43.9653 38.9467 41.9529 37.7749C39.9525 36.5911 38.4077 34.9458 37.3187 32.8388C36.2297 30.7199 35.6852 28.2637 35.6852 25.4702C35.6852 22.6529 36.2297 20.1908 37.3187 18.0838C38.4077 15.965 39.9525 14.3196 41.9529 13.1477C43.9653 11.964 46.3504 11.3722 49.1085 11.3722C51.8665 11.3722 54.2458 11.964 56.2463 13.1477C58.2586 14.3196 59.8092 15.965 60.8983 18.0838C61.9873 20.1908 62.5318 22.6529 62.5318 25.4702C62.5318 28.2637 61.9873 30.7199 60.8983 32.8388C59.8092 34.9458 58.2586 36.5911 56.2463 37.7749C54.2458 38.9467 51.8665 39.5327 49.1085 39.5327ZM49.144 33.6733C50.3987 33.6733 51.4463 33.3182 52.2868 32.608C53.1272 31.8859 53.7605 30.9034 54.1866 29.6605C54.6246 28.4176 54.8436 27.0031 54.8436 25.4169C54.8436 23.8307 54.6246 22.4162 54.1866 21.1733C53.7605 19.9304 53.1272 18.9479 52.2868 18.2259C51.4463 17.5038 50.3987 17.1428 49.144 17.1428C47.8774 17.1428 46.8121 17.5038 45.948 18.2259C45.0957 18.9479 44.4506 19.9304 44.0126 21.1733C43.5865 22.4162 43.3734 23.8307 43.3734 25.4169C43.3734 27.0031 43.5865 28.4176 44.0126 29.6605C44.4506 30.9034 45.0957 31.8859 45.948 32.608C46.8121 33.3182 47.8774 33.6733 49.144 33.6733ZM77.4998 39.4439C75.4283 39.4439 73.5521 38.9112 71.8713 37.8459C70.2022 36.7687 68.8765 35.1884 67.894 33.1051C66.9234 31.0099 66.438 28.4413 66.438 25.3991C66.438 22.2741 66.9411 19.6759 67.9473 17.6044C68.9534 15.5211 70.291 13.9645 71.96 12.9347C73.6409 11.893 75.4816 11.3722 77.4821 11.3722C79.0091 11.3722 80.2815 11.6326 81.2995 12.1534C82.3294 12.6624 83.158 13.3016 83.7853 14.071C84.4245 14.8286 84.9099 15.5743 85.2413 16.3082H85.4721V2.63636H93.0183V39H85.5609V34.6321H85.2413C84.8862 35.3897 84.3831 36.1413 83.7321 36.8871C83.0929 37.621 82.2583 38.2306 81.2285 38.7159C80.2105 39.2012 78.9676 39.4439 77.4998 39.4439ZM79.8968 33.4247C81.1161 33.4247 82.1459 33.0933 82.9863 32.4304C83.8386 31.7557 84.4896 30.8146 84.9395 29.6072C85.4011 28.3999 85.6319 26.9853 85.6319 25.3636C85.6319 23.742 85.407 22.3333 84.9572 21.1378C84.5074 19.9422 83.8564 19.0189 83.0041 18.3679C82.1518 17.7169 81.1161 17.3913 79.8968 17.3913C78.6539 17.3913 77.6064 17.7287 76.7541 18.4034C75.9018 19.0781 75.2567 20.0133 74.8187 21.2088C74.3807 22.4044 74.1618 23.7893 74.1618 25.3636C74.1618 26.9498 74.3807 28.3525 74.8187 29.5717C75.2685 30.7791 75.9136 31.7261 76.7541 32.4126C77.6064 33.0874 78.6539 33.4247 79.8968 33.4247ZM111.666 39.5327C108.861 39.5327 106.446 38.9645 104.422 37.8281C102.41 36.6799 100.859 35.0582 99.7699 32.9631C98.6809 30.8561 98.1364 28.3643 98.1364 25.4879C98.1364 22.6825 98.6809 20.2204 99.7699 18.1016C100.859 15.9827 102.392 14.3314 104.369 13.1477C106.357 11.964 108.689 11.3722 111.364 11.3722C113.164 11.3722 114.839 11.6622 116.389 12.2422C117.952 12.8104 119.313 13.6686 120.473 14.8168C121.645 15.965 122.556 17.4091 123.207 19.1491C123.858 20.8774 124.184 22.9015 124.184 25.2216V27.299H101.155V22.6115H117.064C117.064 21.5225 116.827 20.5578 116.354 19.7173C115.88 18.8769 115.223 18.2199 114.383 17.7464C113.554 17.2611 112.589 17.0185 111.489 17.0185C110.34 17.0185 109.322 17.2848 108.435 17.8175C107.559 18.3383 106.872 19.0426 106.375 19.9304C105.878 20.8063 105.623 21.7829 105.612 22.8601V27.3168C105.612 28.6662 105.86 29.8321 106.357 30.8146C106.866 31.7971 107.582 32.5547 108.506 33.0874C109.429 33.62 110.524 33.8864 111.79 33.8864C112.631 33.8864 113.4 33.768 114.099 33.5312C114.797 33.2945 115.395 32.9394 115.892 32.4659C116.389 31.9924 116.768 31.4124 117.028 30.7259L124.024 31.1875C123.669 32.8684 122.941 34.3362 121.84 35.5909C120.751 36.8338 119.343 37.8045 117.614 38.5028C115.898 39.1894 113.915 39.5327 111.666 39.5327ZM140.692 11.7273H148.256V40.3494C148.256 42.4564 147.842 44.161 147.013 45.4631C146.185 46.7652 144.995 47.718 143.444 48.3217C141.906 48.9254 140.065 49.2273 137.922 49.2273C137.662 49.2273 137.413 49.2214 137.177 49.2095C136.928 49.2095 136.668 49.2036 136.395 49.1918V43.2791C136.597 43.291 136.774 43.2969 136.928 43.2969C137.07 43.3087 137.224 43.3146 137.39 43.3146C138.609 43.3146 139.461 43.0542 139.947 42.5334C140.444 42.0244 140.692 41.255 140.692 40.2251V11.7273ZM144.456 8.21165C143.344 8.21165 142.385 7.83878 141.58 7.09304C140.775 6.33546 140.373 5.42992 140.373 4.37642C140.373 3.33475 140.775 2.44105 141.58 1.69531C142.385 0.937735 143.344 0.558947 144.456 0.558947C145.593 0.558947 146.558 0.937735 147.351 1.69531C148.156 2.44105 148.558 3.33475 148.558 4.37642C148.558 5.42992 148.156 6.33546 147.351 7.09304C146.558 7.83878 145.593 8.21165 144.456 8.21165ZM177.007 19.5043L170.082 19.9304C169.964 19.3385 169.71 18.8059 169.319 18.3324C168.928 17.8471 168.413 17.4624 167.774 17.1783C167.147 16.8823 166.395 16.7344 165.519 16.7344C164.347 16.7344 163.359 16.983 162.554 17.4801C161.749 17.9654 161.347 18.6165 161.347 19.4332C161.347 20.0843 161.607 20.6347 162.128 21.0845C162.649 21.5343 163.542 21.8954 164.809 22.1676L169.745 23.1619C172.397 23.7064 174.373 24.5824 175.675 25.7898C176.978 26.9972 177.629 28.5833 177.629 30.5483C177.629 32.3357 177.102 33.9041 176.048 35.2536C175.007 36.603 173.574 37.6565 171.751 38.4141C169.94 39.1598 167.851 39.5327 165.484 39.5327C161.873 39.5327 158.997 38.781 156.854 37.2777C154.724 35.7625 153.475 33.7029 153.108 31.0987L160.548 30.7081C160.772 31.8089 161.317 32.6494 162.181 33.2294C163.045 33.7976 164.152 34.0817 165.501 34.0817C166.827 34.0817 167.893 33.8272 168.697 33.3182C169.514 32.7973 169.929 32.1286 169.94 31.3118C169.929 30.6252 169.638 30.063 169.07 29.625C168.502 29.1752 167.626 28.8319 166.442 28.5952L161.719 27.6541C159.056 27.1214 157.073 26.1982 155.771 24.8842C154.481 23.5703 153.836 21.8954 153.836 19.8594C153.836 18.1075 154.309 16.5982 155.256 15.3317C156.215 14.0651 157.559 13.0885 159.287 12.402C161.027 11.7154 163.063 11.3722 165.395 11.3722C168.839 11.3722 171.55 12.1001 173.527 13.5561C175.516 15.0121 176.676 16.9948 177.007 19.5043Z" fill="white" fill-opacity="0.05"/>
</svg>
