<svg width="465" height="502" viewBox="0 0 465 502" fill="none" xmlns="http://www.w3.org/2000/svg">
<g filter="url(#filter0_d_43_16)">
<ellipse cx="130" cy="241" rx="295" ry="221" fill="url(#paint0_radial_43_16)" fill-opacity="0.17" shape-rendering="crispEdges"/>
<path d="M424.5 241C424.5 301.835 391.587 356.948 338.297 396.87C285.007 436.793 211.364 461.5 130 461.5C48.6356 461.5 -25.0068 436.793 -78.2967 396.87C-131.587 356.948 -164.5 301.835 -164.5 241C-164.5 180.165 -131.587 125.052 -78.2967 85.1296C-25.0068 45.2073 48.6356 20.5 130 20.5C211.364 20.5 285.007 45.2073 338.297 85.1296C391.587 125.052 424.5 180.165 424.5 241Z" stroke="#162D3D" stroke-opacity="0.26" shape-rendering="crispEdges"/>
</g>
<defs>
<filter id="filter0_d_43_16" x="-185" y="0" width="650" height="502" filterUnits="userSpaceOnUse" color-interpolation-filters="sRGB">
<feFlood flood-opacity="0" result="BackgroundImageFix"/>
<feColorMatrix in="SourceAlpha" type="matrix" values="0 0 0 0 0 0 0 0 0 0 0 0 0 0 0 0 0 0 127 0" result="hardAlpha"/>
<feMorphology radius="20" operator="dilate" in="SourceAlpha" result="effect1_dropShadow_43_16"/>
<feOffset dx="10" dy="10"/>
<feGaussianBlur stdDeviation="5"/>
<feComposite in2="hardAlpha" operator="out"/>
<feColorMatrix type="matrix" values="0 0 0 0 0.558958 0 0 0 0 0.474375 0 0 0 0 0.474375 0 0 0 0.25 0"/>
<feBlend mode="normal" in2="BackgroundImageFix" result="effect1_dropShadow_43_16"/>
<feBlend mode="normal" in="SourceGraphic" in2="effect1_dropShadow_43_16" result="shape"/>
</filter>
<radialGradient id="paint0_radial_43_16" cx="0" cy="0" r="1" gradientUnits="userSpaceOnUse" gradientTransform="translate(130 241) rotate(90) scale(221 295)">
<stop/>
<stop offset="1" stop-color="#2A3B46" stop-opacity="0.9"/>
</radialGradient>
</defs>
</svg>
