<svg width="198" height="77" viewBox="0 0 198 77" fill="none" xmlns="http://www.w3.org/2000/svg">
<path d="M13.1605 59V22.6364H20.8487V52.6612H36.4382V59H13.1605ZM49.1646 59.5149C47.4245 59.5149 45.8739 59.2131 44.5126 58.6094C43.1513 57.9938 42.0742 57.0883 41.2811 55.8928C40.4998 54.6854 40.1092 53.1821 40.1092 51.3828C40.1092 49.8677 40.3874 48.5952 40.9437 47.5653C41.5001 46.5355 42.2576 45.7069 43.2164 45.0795C44.1752 44.4522 45.2643 43.9787 46.4835 43.6591C47.7145 43.3395 49.0048 43.1146 50.3542 42.9844C51.9404 42.8187 53.2188 42.6648 54.1895 42.5227C55.1601 42.3688 55.8644 42.1439 56.3024 41.848C56.7404 41.5521 56.9593 41.1141 56.9593 40.5341V40.4276C56.9593 39.303 56.6042 38.433 55.894 37.8175C55.1956 37.2019 54.2013 36.8942 52.911 36.8942C51.5498 36.8942 50.4667 37.196 49.6618 37.7997C48.8568 38.3916 48.3242 39.1373 48.0637 40.0369L41.068 39.4688C41.4231 37.8116 42.1215 36.3793 43.1632 35.1719C44.2048 33.9527 45.5484 33.0175 47.1937 32.3665C48.8509 31.7036 50.7685 31.3722 52.9466 31.3722C54.4617 31.3722 55.9118 31.5497 57.2967 31.9048C58.6935 32.2599 59.9305 32.8104 61.0076 33.5561C62.0967 34.3018 62.9548 35.2607 63.5822 36.4325C64.2096 37.5926 64.5233 38.9834 64.5233 40.6051V59H57.35V55.218H57.1369C56.6989 56.0703 56.113 56.822 55.3791 57.473C54.6452 58.1122 53.7633 58.6153 52.7335 58.9822C51.7037 59.3374 50.514 59.5149 49.1646 59.5149ZM51.3308 54.2947C52.4435 54.2947 53.426 54.0758 54.2782 53.6378C55.1305 53.188 55.7993 52.5843 56.2846 51.8267C56.7699 51.0691 57.0126 50.2109 57.0126 49.2521V46.358C56.7759 46.5118 56.4503 46.6539 56.036 46.7841C55.6336 46.9025 55.1779 47.0149 54.6689 47.1214C54.1599 47.2161 53.6509 47.3049 53.1419 47.3878C52.6329 47.4588 52.1712 47.5239 51.7569 47.5831C50.8691 47.7133 50.0938 47.9205 49.4309 48.2045C48.7681 48.4886 48.2531 48.8733 47.8862 49.3587C47.5192 49.8321 47.3358 50.424 47.3358 51.1342C47.3358 52.1641 47.7086 52.9512 48.4544 53.4957C49.2119 54.0284 50.1708 54.2947 51.3308 54.2947ZM70.3915 59V31.7273H77.7246V36.4858H78.0087C78.5059 34.7931 79.3404 33.5147 80.5123 32.6506C81.6841 31.7746 83.0336 31.3366 84.5605 31.3366C84.9393 31.3366 85.3477 31.3603 85.7857 31.4077C86.2237 31.455 86.6084 31.5201 86.9398 31.603V38.3146C86.5847 38.2081 86.0935 38.1134 85.4661 38.0305C84.8387 37.9477 84.2646 37.9062 83.7438 37.9062C82.6311 37.9062 81.6368 38.1489 80.7608 38.6342C79.8967 39.1077 79.2102 39.7706 78.7012 40.6229C78.204 41.4751 77.9554 42.4576 77.9554 43.5703V59H70.3915ZM97.8462 59.5149C96.1062 59.5149 94.5555 59.2131 93.1942 58.6094C91.833 57.9938 90.7558 57.0883 89.9627 55.8928C89.1815 54.6854 88.7908 53.1821 88.7908 51.3828C88.7908 49.8677 89.069 48.5952 89.6254 47.5653C90.1817 46.5355 90.9393 45.7069 91.8981 45.0795C92.8569 44.4522 93.9459 43.9787 95.1651 43.6591C96.3962 43.3395 97.6864 43.1146 99.0359 42.9844C100.622 42.8187 101.9 42.6648 102.871 42.5227C103.842 42.3688 104.546 42.1439 104.984 41.848C105.422 41.5521 105.641 41.1141 105.641 40.5341V40.4276C105.641 39.303 105.286 38.433 104.576 37.8175C103.877 37.2019 102.883 36.8942 101.593 36.8942C100.231 36.8942 99.1483 37.196 98.3434 37.7997C97.5385 38.3916 97.0058 39.1373 96.7454 40.0369L89.7496 39.4688C90.1048 37.8116 90.8031 36.3793 91.8448 35.1719C92.8865 33.9527 94.23 33.0175 95.8754 32.3665C97.5326 31.7036 99.4502 31.3722 101.628 31.3722C103.143 31.3722 104.593 31.5497 105.978 31.9048C107.375 32.2599 108.612 32.8104 109.689 33.5561C110.778 34.3018 111.636 35.2607 112.264 36.4325C112.891 37.5926 113.205 38.9834 113.205 40.6051V59H106.032V55.218H105.819C105.381 56.0703 104.795 56.822 104.061 57.473C103.327 58.1122 102.445 58.6153 101.415 58.9822C100.385 59.3374 99.1957 59.5149 97.8462 59.5149ZM100.012 54.2947C101.125 54.2947 102.108 54.0758 102.96 53.6378C103.812 53.188 104.481 52.5843 104.966 51.8267C105.452 51.0691 105.694 50.2109 105.694 49.2521V46.358C105.458 46.5118 105.132 46.6539 104.718 46.7841C104.315 46.9025 103.859 47.0149 103.35 47.1214C102.842 47.2161 102.333 47.3049 101.824 47.3878C101.315 47.4588 100.853 47.5239 100.439 47.5831C99.5508 47.7133 98.7755 47.9205 98.1126 48.2045C97.4497 48.4886 96.9348 48.8733 96.5678 49.3587C96.2009 49.8321 96.0174 50.424 96.0174 51.1342C96.0174 52.1641 96.3903 52.9512 97.136 53.4957C97.8936 54.0284 98.8524 54.2947 100.012 54.2947ZM143.523 31.7273L133.988 59H125.465L115.93 31.7273H123.92L129.585 51.2408H129.869L135.515 31.7273H143.523ZM158.944 59.5327C156.138 59.5327 153.723 58.9645 151.699 57.8281C149.687 56.6799 148.136 55.0582 147.047 52.9631C145.958 50.8561 145.414 48.3643 145.414 45.4879C145.414 42.6825 145.958 40.2204 147.047 38.1016C148.136 35.9827 149.669 34.3314 151.646 33.1477C153.635 31.964 155.967 31.3722 158.642 31.3722C160.441 31.3722 162.116 31.6622 163.667 32.2422C165.229 32.8104 166.59 33.6686 167.75 34.8168C168.922 35.965 169.834 37.4091 170.485 39.1491C171.136 40.8774 171.461 42.9015 171.461 45.2216V47.299H148.432V42.6115H164.341C164.341 41.5225 164.105 40.5578 163.631 39.7173C163.158 38.8769 162.501 38.2199 161.66 37.7464C160.832 37.2611 159.867 37.0185 158.766 37.0185C157.618 37.0185 156.6 37.2848 155.712 37.8175C154.836 38.3383 154.15 39.0426 153.652 39.9304C153.155 40.8063 152.901 41.7829 152.889 42.8601V47.3168C152.889 48.6662 153.137 49.8321 153.635 50.8146C154.144 51.7971 154.86 52.5547 155.783 53.0874C156.706 53.62 157.801 53.8864 159.068 53.8864C159.908 53.8864 160.678 53.768 161.376 53.5312C162.074 53.2945 162.672 52.9394 163.169 52.4659C163.667 51.9924 164.045 51.4124 164.306 50.7259L171.301 51.1875C170.946 52.8684 170.218 54.3362 169.118 55.5909C168.029 56.8338 166.62 57.8045 164.892 58.5028C163.175 59.1894 161.193 59.5327 158.944 59.5327ZM183.961 22.6364V59H176.397V22.6364H183.961Z" fill="white" fill-opacity="0.06"/>
</svg>
