<svg width="350" height="51" viewBox="0 0 350 51" fill="none" xmlns="http://www.w3.org/2000/svg">
<g filter="url(#filter0_dd_244_786)">
<rect x="3" y="3" width="344" height="43" rx="4.83838" fill="white"/>
<path fill-rule="evenodd" clip-rule="evenodd" d="M83.5 24.7839C83.5 23.8975 83.4205 23.0452 83.2727 22.2271H71.5V27.0623H78.2273C77.9375 28.6248 77.0568 29.9486 75.733 30.835V33.9714H79.7727C82.1364 31.7952 83.5 28.5907 83.5 24.7839Z" fill="#4285F4"/>
<path fill-rule="evenodd" clip-rule="evenodd" d="M71.5 37C74.875 37 77.7046 35.8807 79.7728 33.9716L75.733 30.8352C74.6137 31.5852 73.1819 32.0284 71.5 32.0284C68.2444 32.0284 65.4887 29.8295 64.5057 26.875H60.3296V30.1136C62.3864 34.1989 66.6137 37 71.5 37Z" fill="#34A853"/>
<path fill-rule="evenodd" clip-rule="evenodd" d="M64.5057 26.8749C64.2557 26.1249 64.1136 25.3237 64.1136 24.4999C64.1136 23.676 64.2557 22.8749 64.5057 22.1249V18.8862H60.3295C59.483 20.5737 59 22.4828 59 24.4999C59 26.5169 59.483 28.426 60.3295 30.1135L64.5057 26.8749Z" fill="#FBBC05"/>
<path fill-rule="evenodd" clip-rule="evenodd" d="M71.5 16.9716C73.3353 16.9716 74.983 17.6023 76.2785 18.8409L79.8637 15.2557C77.6989 13.2386 74.8694 12 71.5 12C66.6137 12 62.3864 14.8011 60.3296 18.8864L64.5057 22.125C65.4887 19.1705 68.2444 16.9716 71.5 16.9716Z" fill="#EA4335"/>
<path d="M99.9258 27.3379C99.9258 27.0449 99.8802 26.7845 99.7891 26.5566C99.7044 26.3288 99.5514 26.1204 99.3301 25.9316C99.1087 25.7428 98.7962 25.5605 98.3926 25.3848C97.9954 25.2025 97.4876 25.0169 96.8691 24.8281C96.1921 24.6198 95.5671 24.3887 94.9941 24.1348C94.4277 23.8743 93.9329 23.5749 93.5098 23.2363C93.0866 22.8913 92.7578 22.4974 92.5234 22.0547C92.2891 21.6055 92.1719 21.0879 92.1719 20.502C92.1719 19.9225 92.2923 19.3952 92.5332 18.9199C92.7806 18.4447 93.1289 18.0345 93.5781 17.6895C94.0339 17.3379 94.571 17.0677 95.1895 16.8789C95.8079 16.6836 96.4915 16.5859 97.2402 16.5859C98.2949 16.5859 99.2031 16.7812 99.9648 17.1719C100.733 17.5625 101.322 18.0866 101.732 18.7441C102.149 19.4017 102.357 20.1276 102.357 20.9219H99.9258C99.9258 20.4531 99.8249 20.0397 99.623 19.6816C99.4277 19.3171 99.1283 19.0306 98.7246 18.8223C98.3275 18.6139 97.8229 18.5098 97.2109 18.5098C96.6315 18.5098 96.1497 18.5977 95.7656 18.7734C95.3815 18.9492 95.0951 19.1868 94.9062 19.4863C94.7174 19.7858 94.623 20.1243 94.623 20.502C94.623 20.7689 94.6849 21.013 94.8086 21.2344C94.9323 21.4492 95.1211 21.651 95.375 21.8398C95.6289 22.0221 95.9479 22.1947 96.332 22.3574C96.7161 22.5202 97.1686 22.6764 97.6895 22.8262C98.4772 23.0605 99.1641 23.321 99.75 23.6074C100.336 23.8874 100.824 24.2064 101.215 24.5645C101.605 24.9225 101.898 25.3294 102.094 25.7852C102.289 26.2344 102.387 26.7454 102.387 27.3184C102.387 27.9173 102.266 28.4577 102.025 28.9395C101.785 29.4147 101.439 29.8216 100.99 30.1602C100.548 30.4922 100.014 30.7493 99.3887 30.9316C98.7702 31.1074 98.0801 31.1953 97.3184 31.1953C96.6348 31.1953 95.9609 31.1042 95.2969 30.9219C94.6393 30.7396 94.0404 30.4629 93.5 30.0918C92.9596 29.7142 92.5299 29.2454 92.2109 28.6855C91.8919 28.1191 91.7324 27.4583 91.7324 26.7031H94.1836C94.1836 27.1654 94.2617 27.5592 94.418 27.8848C94.5807 28.2103 94.8053 28.4772 95.0918 28.6855C95.3783 28.8874 95.7103 29.0371 96.0879 29.1348C96.472 29.2324 96.8822 29.2812 97.3184 29.2812C97.8913 29.2812 98.3698 29.1999 98.7539 29.0371C99.1445 28.8743 99.4375 28.6465 99.6328 28.3535C99.8281 28.0605 99.9258 27.722 99.9258 27.3379ZM106.84 20.4336V31H104.477V20.4336H106.84ZM104.32 17.6602C104.32 17.3021 104.438 17.0059 104.672 16.7715C104.913 16.5306 105.245 16.4102 105.668 16.4102C106.085 16.4102 106.413 16.5306 106.654 16.7715C106.895 17.0059 107.016 17.3021 107.016 17.6602C107.016 18.0117 106.895 18.3047 106.654 18.5391C106.413 18.7734 106.085 18.8906 105.668 18.8906C105.245 18.8906 104.913 18.7734 104.672 18.5391C104.438 18.3047 104.32 18.0117 104.32 17.6602ZM116.186 20.4336H118.324V30.707C118.324 31.6576 118.122 32.4648 117.719 33.1289C117.315 33.793 116.752 34.2975 116.029 34.6426C115.307 34.9941 114.47 35.1699 113.52 35.1699C113.116 35.1699 112.667 35.1113 112.172 34.9941C111.684 34.877 111.208 34.6882 110.746 34.4277C110.29 34.1738 109.91 33.8385 109.604 33.4219L110.707 32.0352C111.085 32.4844 111.501 32.8132 111.957 33.0215C112.413 33.2298 112.891 33.334 113.393 33.334C113.933 33.334 114.392 33.2331 114.77 33.0312C115.154 32.8359 115.45 32.5462 115.658 32.1621C115.867 31.778 115.971 31.3092 115.971 30.7559V22.8262L116.186 20.4336ZM109.008 25.834V25.6289C109.008 24.8281 109.105 24.099 109.301 23.4414C109.496 22.7773 109.776 22.2077 110.141 21.7324C110.505 21.2507 110.948 20.8828 111.469 20.6289C111.99 20.3685 112.579 20.2383 113.236 20.2383C113.92 20.2383 114.503 20.362 114.984 20.6094C115.473 20.8568 115.88 21.2116 116.205 21.6738C116.531 22.1296 116.785 22.6764 116.967 23.3145C117.156 23.946 117.296 24.6491 117.387 25.4238V26.0781C117.302 26.8333 117.159 27.5234 116.957 28.1484C116.755 28.7734 116.488 29.3138 116.156 29.7695C115.824 30.2253 115.414 30.5768 114.926 30.8242C114.444 31.0716 113.874 31.1953 113.217 31.1953C112.572 31.1953 111.99 31.0618 111.469 30.7949C110.954 30.528 110.512 30.1536 110.141 29.6719C109.776 29.1901 109.496 28.6237 109.301 27.9727C109.105 27.3151 109.008 26.6022 109.008 25.834ZM111.361 25.6289V25.834C111.361 26.3158 111.407 26.765 111.498 27.1816C111.596 27.5983 111.742 27.9661 111.938 28.2852C112.139 28.5977 112.393 28.8451 112.699 29.0273C113.012 29.2031 113.38 29.291 113.803 29.291C114.356 29.291 114.809 29.1738 115.16 28.9395C115.518 28.7051 115.792 28.3893 115.98 27.9922C116.176 27.5885 116.312 27.1393 116.391 26.6445V24.877C116.352 24.4928 116.27 24.1348 116.146 23.8027C116.029 23.4707 115.87 23.181 115.668 22.9336C115.466 22.6797 115.212 22.4844 114.906 22.3477C114.6 22.2044 114.239 22.1328 113.822 22.1328C113.399 22.1328 113.031 22.224 112.719 22.4062C112.406 22.5885 112.149 22.8392 111.947 23.1582C111.752 23.4772 111.605 23.8483 111.508 24.2715C111.41 24.6947 111.361 25.1471 111.361 25.6289ZM123.1 22.6895V31H120.746V20.4336H122.963L123.1 22.6895ZM122.68 25.3262L121.918 25.3164C121.924 24.5677 122.029 23.8809 122.23 23.2559C122.439 22.6309 122.725 22.0938 123.09 21.6445C123.461 21.1953 123.904 20.8503 124.418 20.6094C124.932 20.362 125.505 20.2383 126.137 20.2383C126.645 20.2383 127.104 20.3099 127.514 20.4531C127.93 20.5898 128.285 20.8145 128.578 21.127C128.878 21.4395 129.105 21.8464 129.262 22.3477C129.418 22.8424 129.496 23.4512 129.496 24.1738V31H127.133V24.1641C127.133 23.6562 127.058 23.2559 126.908 22.9629C126.765 22.6634 126.553 22.4518 126.273 22.3281C126 22.1979 125.658 22.1328 125.248 22.1328C124.844 22.1328 124.483 22.2174 124.164 22.3867C123.845 22.556 123.575 22.7871 123.354 23.0801C123.139 23.373 122.973 23.7116 122.855 24.0957C122.738 24.4798 122.68 24.89 122.68 25.3262ZM139.398 20.4336V31H137.035V20.4336H139.398ZM136.879 17.6602C136.879 17.3021 136.996 17.0059 137.23 16.7715C137.471 16.5306 137.803 16.4102 138.227 16.4102C138.643 16.4102 138.972 16.5306 139.213 16.7715C139.454 17.0059 139.574 17.3021 139.574 17.6602C139.574 18.0117 139.454 18.3047 139.213 18.5391C138.972 18.7734 138.643 18.8906 138.227 18.8906C137.803 18.8906 137.471 18.7734 137.23 18.5391C136.996 18.3047 136.879 18.0117 136.879 17.6602ZM144.311 22.6895V31H141.957V20.4336H144.174L144.311 22.6895ZM143.891 25.3262L143.129 25.3164C143.135 24.5677 143.24 23.8809 143.441 23.2559C143.65 22.6309 143.936 22.0938 144.301 21.6445C144.672 21.1953 145.115 20.8503 145.629 20.6094C146.143 20.362 146.716 20.2383 147.348 20.2383C147.855 20.2383 148.314 20.3099 148.725 20.4531C149.141 20.5898 149.496 20.8145 149.789 21.127C150.089 21.4395 150.316 21.8464 150.473 22.3477C150.629 22.8424 150.707 23.4512 150.707 24.1738V31H148.344V24.1641C148.344 23.6562 148.269 23.2559 148.119 22.9629C147.976 22.6634 147.764 22.4518 147.484 22.3281C147.211 22.1979 146.869 22.1328 146.459 22.1328C146.055 22.1328 145.694 22.2174 145.375 22.3867C145.056 22.556 144.786 22.7871 144.564 23.0801C144.35 23.373 144.184 23.7116 144.066 24.0957C143.949 24.4798 143.891 24.89 143.891 25.3262ZM160.961 28.6562L163.402 20.4336H164.906L164.496 22.8945L162.035 31H160.688L160.961 28.6562ZM159.525 20.4336L161.43 28.6953L161.586 31H160.082L157.221 20.4336H159.525ZM167.191 28.5977L169.037 20.4336H171.332L168.48 31H166.977L167.191 28.5977ZM165.16 20.4336L167.572 28.5586L167.875 31H166.527L164.037 22.8848L163.627 20.4336H165.16ZM175.453 20.4336V31H173.09V20.4336H175.453ZM172.934 17.6602C172.934 17.3021 173.051 17.0059 173.285 16.7715C173.526 16.5306 173.858 16.4102 174.281 16.4102C174.698 16.4102 175.027 16.5306 175.268 16.7715C175.508 17.0059 175.629 17.3021 175.629 17.6602C175.629 18.0117 175.508 18.3047 175.268 18.5391C175.027 18.7734 174.698 18.8906 174.281 18.8906C173.858 18.8906 173.526 18.7734 173.285 18.5391C173.051 18.3047 172.934 18.0117 172.934 17.6602ZM182.875 20.4336V22.1523H176.918V20.4336H182.875ZM178.637 17.8457H180.99V28.0801C180.99 28.4056 181.036 28.6562 181.127 28.832C181.225 29.0013 181.358 29.1152 181.527 29.1738C181.697 29.2324 181.895 29.2617 182.123 29.2617C182.286 29.2617 182.442 29.252 182.592 29.2324C182.742 29.2129 182.862 29.1934 182.953 29.1738L182.963 30.9707C182.768 31.0293 182.54 31.0814 182.279 31.127C182.025 31.1725 181.732 31.1953 181.4 31.1953C180.86 31.1953 180.382 31.1009 179.965 30.9121C179.548 30.7168 179.223 30.401 178.988 29.9648C178.754 29.5286 178.637 28.9492 178.637 28.2266V17.8457ZM187.016 16V31H184.672V16H187.016ZM186.605 25.3262L185.844 25.3164C185.85 24.5872 185.951 23.9134 186.146 23.2949C186.348 22.6764 186.628 22.1393 186.986 21.6836C187.351 21.2214 187.787 20.8665 188.295 20.6191C188.803 20.3652 189.366 20.2383 189.984 20.2383C190.505 20.2383 190.974 20.3099 191.391 20.4531C191.814 20.5964 192.178 20.8275 192.484 21.1465C192.79 21.459 193.021 21.8691 193.178 22.377C193.34 22.8783 193.422 23.4902 193.422 24.2129V31H191.059V24.1934C191.059 23.6855 190.984 23.2819 190.834 22.9824C190.691 22.6829 190.479 22.4681 190.199 22.3379C189.919 22.2012 189.577 22.1328 189.174 22.1328C188.751 22.1328 188.376 22.2174 188.051 22.3867C187.732 22.556 187.465 22.7871 187.25 23.0801C187.035 23.373 186.872 23.7116 186.762 24.0957C186.658 24.4798 186.605 24.89 186.605 25.3262ZM211.938 23.7344V29.1641C211.736 29.431 211.42 29.724 210.99 30.043C210.567 30.3555 210.004 30.6257 209.301 30.8535C208.598 31.0814 207.722 31.1953 206.674 31.1953C205.782 31.1953 204.965 31.0456 204.223 30.7461C203.48 30.4401 202.839 29.9941 202.299 29.4082C201.765 28.8223 201.352 28.1094 201.059 27.2695C200.766 26.4232 200.619 25.4596 200.619 24.3789V23.3926C200.619 22.3184 200.753 21.3613 201.02 20.5215C201.293 19.6751 201.684 18.959 202.191 18.373C202.699 17.7871 203.311 17.3444 204.027 17.0449C204.75 16.7389 205.567 16.5859 206.479 16.5859C207.644 16.5859 208.607 16.7812 209.369 17.1719C210.137 17.556 210.73 18.0898 211.146 18.7734C211.563 19.457 211.827 20.2383 211.938 21.1172H209.535C209.457 20.6224 209.304 20.1797 209.076 19.7891C208.855 19.3984 208.536 19.0924 208.119 18.8711C207.709 18.6432 207.175 18.5293 206.518 18.5293C205.951 18.5293 205.453 18.6367 205.023 18.8516C204.594 19.0664 204.236 19.3822 203.949 19.7988C203.669 20.2155 203.458 20.7233 203.314 21.3223C203.171 21.9212 203.1 22.6048 203.1 23.373V24.3789C203.1 25.1602 203.181 25.8535 203.344 26.459C203.513 27.0645 203.754 27.5755 204.066 27.9922C204.385 28.4089 204.773 28.7246 205.229 28.9395C205.684 29.1478 206.199 29.252 206.771 29.252C207.331 29.252 207.79 29.2064 208.148 29.1152C208.507 29.0176 208.79 28.9036 208.998 28.7734C209.213 28.6367 209.379 28.5065 209.496 28.3828V25.5605H206.537V23.7344H211.938ZM213.969 25.834V25.6094C213.969 24.8477 214.079 24.1413 214.301 23.4902C214.522 22.8327 214.841 22.263 215.258 21.7812C215.681 21.293 216.195 20.9154 216.801 20.6484C217.413 20.375 218.103 20.2383 218.871 20.2383C219.646 20.2383 220.336 20.375 220.941 20.6484C221.553 20.9154 222.071 21.293 222.494 21.7812C222.917 22.263 223.24 22.8327 223.461 23.4902C223.682 24.1413 223.793 24.8477 223.793 25.6094V25.834C223.793 26.5957 223.682 27.3021 223.461 27.9531C223.24 28.6042 222.917 29.1738 222.494 29.6621C222.071 30.1439 221.557 30.5215 220.951 30.7949C220.346 31.0618 219.659 31.1953 218.891 31.1953C218.116 31.1953 217.423 31.0618 216.811 30.7949C216.205 30.5215 215.691 30.1439 215.268 29.6621C214.844 29.1738 214.522 28.6042 214.301 27.9531C214.079 27.3021 213.969 26.5957 213.969 25.834ZM216.322 25.6094V25.834C216.322 26.3092 216.371 26.7585 216.469 27.1816C216.566 27.6048 216.719 27.9759 216.928 28.2949C217.136 28.6139 217.403 28.8646 217.729 29.0469C218.054 29.2292 218.441 29.3203 218.891 29.3203C219.327 29.3203 219.704 29.2292 220.023 29.0469C220.349 28.8646 220.616 28.6139 220.824 28.2949C221.033 27.9759 221.186 27.6048 221.283 27.1816C221.387 26.7585 221.439 26.3092 221.439 25.834V25.6094C221.439 25.1406 221.387 24.6979 221.283 24.2812C221.186 23.8581 221.029 23.4837 220.814 23.1582C220.606 22.8327 220.339 22.5788 220.014 22.3965C219.695 22.2077 219.314 22.1133 218.871 22.1133C218.428 22.1133 218.044 22.2077 217.719 22.3965C217.4 22.5788 217.136 22.8327 216.928 23.1582C216.719 23.4837 216.566 23.8581 216.469 24.2812C216.371 24.6979 216.322 25.1406 216.322 25.6094ZM225.316 25.834V25.6094C225.316 24.8477 225.427 24.1413 225.648 23.4902C225.87 22.8327 226.189 22.263 226.605 21.7812C227.029 21.293 227.543 20.9154 228.148 20.6484C228.76 20.375 229.451 20.2383 230.219 20.2383C230.993 20.2383 231.684 20.375 232.289 20.6484C232.901 20.9154 233.419 21.293 233.842 21.7812C234.265 22.263 234.587 22.8327 234.809 23.4902C235.03 24.1413 235.141 24.8477 235.141 25.6094V25.834C235.141 26.5957 235.03 27.3021 234.809 27.9531C234.587 28.6042 234.265 29.1738 233.842 29.6621C233.419 30.1439 232.904 30.5215 232.299 30.7949C231.693 31.0618 231.007 31.1953 230.238 31.1953C229.464 31.1953 228.77 31.0618 228.158 30.7949C227.553 30.5215 227.038 30.1439 226.615 29.6621C226.192 29.1738 225.87 28.6042 225.648 27.9531C225.427 27.3021 225.316 26.5957 225.316 25.834ZM227.67 25.6094V25.834C227.67 26.3092 227.719 26.7585 227.816 27.1816C227.914 27.6048 228.067 27.9759 228.275 28.2949C228.484 28.6139 228.751 28.8646 229.076 29.0469C229.402 29.2292 229.789 29.3203 230.238 29.3203C230.674 29.3203 231.052 29.2292 231.371 29.0469C231.697 28.8646 231.964 28.6139 232.172 28.2949C232.38 27.9759 232.533 27.6048 232.631 27.1816C232.735 26.7585 232.787 26.3092 232.787 25.834V25.6094C232.787 25.1406 232.735 24.6979 232.631 24.2812C232.533 23.8581 232.377 23.4837 232.162 23.1582C231.954 22.8327 231.687 22.5788 231.361 22.3965C231.042 22.2077 230.661 22.1133 230.219 22.1133C229.776 22.1133 229.392 22.2077 229.066 22.3965C228.747 22.5788 228.484 22.8327 228.275 23.1582C228.067 23.4837 227.914 23.8581 227.816 24.2812C227.719 24.6979 227.67 25.1406 227.67 25.6094ZM243.881 20.4336H246.02V30.707C246.02 31.6576 245.818 32.4648 245.414 33.1289C245.01 33.793 244.447 34.2975 243.725 34.6426C243.002 34.9941 242.165 35.1699 241.215 35.1699C240.811 35.1699 240.362 35.1113 239.867 34.9941C239.379 34.877 238.904 34.6882 238.441 34.4277C237.986 34.1738 237.605 33.8385 237.299 33.4219L238.402 32.0352C238.78 32.4844 239.197 32.8132 239.652 33.0215C240.108 33.2298 240.587 33.334 241.088 33.334C241.628 33.334 242.087 33.2331 242.465 33.0312C242.849 32.8359 243.145 32.5462 243.354 32.1621C243.562 31.778 243.666 31.3092 243.666 30.7559V22.8262L243.881 20.4336ZM236.703 25.834V25.6289C236.703 24.8281 236.801 24.099 236.996 23.4414C237.191 22.7773 237.471 22.2077 237.836 21.7324C238.201 21.2507 238.643 20.8828 239.164 20.6289C239.685 20.3685 240.274 20.2383 240.932 20.2383C241.615 20.2383 242.198 20.362 242.68 20.6094C243.168 20.8568 243.575 21.2116 243.9 21.6738C244.226 22.1296 244.48 22.6764 244.662 23.3145C244.851 23.946 244.991 24.6491 245.082 25.4238V26.0781C244.997 26.8333 244.854 27.5234 244.652 28.1484C244.451 28.7734 244.184 29.3138 243.852 29.7695C243.52 30.2253 243.109 30.5768 242.621 30.8242C242.139 31.0716 241.57 31.1953 240.912 31.1953C240.268 31.1953 239.685 31.0618 239.164 30.7949C238.65 30.528 238.207 30.1536 237.836 29.6719C237.471 29.1901 237.191 28.6237 236.996 27.9727C236.801 27.3151 236.703 26.6022 236.703 25.834ZM239.057 25.6289V25.834C239.057 26.3158 239.102 26.765 239.193 27.1816C239.291 27.5983 239.438 27.9661 239.633 28.2852C239.835 28.5977 240.089 28.8451 240.395 29.0273C240.707 29.2031 241.075 29.291 241.498 29.291C242.051 29.291 242.504 29.1738 242.855 28.9395C243.214 28.7051 243.487 28.3893 243.676 27.9922C243.871 27.5885 244.008 27.1393 244.086 26.6445V24.877C244.047 24.4928 243.965 24.1348 243.842 23.8027C243.725 23.4707 243.565 23.181 243.363 22.9336C243.161 22.6797 242.908 22.4844 242.602 22.3477C242.296 22.2044 241.934 22.1328 241.518 22.1328C241.094 22.1328 240.727 22.224 240.414 22.4062C240.102 22.5885 239.844 22.8392 239.643 23.1582C239.447 23.4772 239.301 23.8483 239.203 24.2715C239.105 24.6947 239.057 25.1471 239.057 25.6289ZM250.98 16V31H248.617V16H250.98ZM258.217 31.1953C257.436 31.1953 256.729 31.0684 256.098 30.8145C255.473 30.554 254.939 30.1927 254.496 29.7305C254.06 29.2682 253.725 28.7246 253.49 28.0996C253.256 27.4746 253.139 26.8008 253.139 26.0781V25.6875C253.139 24.8607 253.259 24.112 253.5 23.4414C253.741 22.7708 254.076 22.1979 254.506 21.7227C254.936 21.2409 255.443 20.873 256.029 20.6191C256.615 20.3652 257.25 20.2383 257.934 20.2383C258.689 20.2383 259.35 20.3652 259.916 20.6191C260.482 20.873 260.951 21.2311 261.322 21.6934C261.7 22.1491 261.98 22.6927 262.162 23.3242C262.351 23.9557 262.445 24.6523 262.445 25.4141V26.4199H254.281V24.7305H260.121V24.5449C260.108 24.1217 260.023 23.7246 259.867 23.3535C259.717 22.9824 259.486 22.6829 259.174 22.4551C258.861 22.2272 258.445 22.1133 257.924 22.1133C257.533 22.1133 257.185 22.1979 256.879 22.3672C256.579 22.5299 256.329 22.7676 256.127 23.0801C255.925 23.3926 255.769 23.7702 255.658 24.2129C255.554 24.6491 255.502 25.1406 255.502 25.6875V26.0781C255.502 26.5404 255.564 26.9701 255.688 27.3672C255.818 27.7578 256.007 28.0996 256.254 28.3926C256.501 28.6855 256.801 28.9167 257.152 29.0859C257.504 29.2487 257.904 29.3301 258.354 29.3301C258.92 29.3301 259.424 29.2161 259.867 28.9883C260.31 28.7604 260.694 28.4382 261.02 28.0215L262.26 29.2227C262.032 29.5547 261.736 29.8737 261.371 30.1797C261.007 30.4792 260.561 30.7233 260.033 30.9121C259.512 31.1009 258.907 31.1953 258.217 31.1953Z" fill="black" fill-opacity="0.54"/>
</g>
<defs>
<filter id="filter0_dd_244_786" x="0.580808" y="0.580808" width="348.838" height="50.2576" filterUnits="userSpaceOnUse" color-interpolation-filters="sRGB">
<feFlood flood-opacity="0" result="BackgroundImageFix"/>
<feColorMatrix in="SourceAlpha" type="matrix" values="0 0 0 0 0 0 0 0 0 0 0 0 0 0 0 0 0 0 127 0" result="hardAlpha"/>
<feOffset dy="2.41919"/>
<feGaussianBlur stdDeviation="1.2096"/>
<feColorMatrix type="matrix" values="0 0 0 0 0 0 0 0 0 0 0 0 0 0 0 0 0 0 0.168 0"/>
<feBlend mode="normal" in2="BackgroundImageFix" result="effect1_dropShadow_244_786"/>
<feColorMatrix in="SourceAlpha" type="matrix" values="0 0 0 0 0 0 0 0 0 0 0 0 0 0 0 0 0 0 127 0" result="hardAlpha"/>
<feOffset/>
<feGaussianBlur stdDeviation="1.2096"/>
<feColorMatrix type="matrix" values="0 0 0 0 0 0 0 0 0 0 0 0 0 0 0 0 0 0 0.084 0"/>
<feBlend mode="normal" in2="effect1_dropShadow_244_786" result="effect2_dropShadow_244_786"/>
<feBlend mode="normal" in="SourceGraphic" in2="effect2_dropShadow_244_786" result="shape"/>
</filter>
</defs>
</svg>
