<svg width="10" height="8" viewBox="0 0 10 8" fill="none" xmlns="http://www.w3.org/2000/svg">
<path d="M5 0C2.72727 0 0.786364 1.65867 0 4C0.786364 6.34133 2.72727 8 5 8C7.27273 8 9.21364 6.34133 10 4C9.21364 1.65867 7.27273 0 5 0ZM5 6.66667C3.74545 6.66667 2.72727 5.472 2.72727 4C2.72727 2.528 3.74545 1.33333 5 1.33333C6.25455 1.33333 7.27273 2.528 7.27273 4C7.27273 5.472 6.25455 6.66667 5 6.66667ZM5 2.4C4.24545 2.4 3.63636 3.11467 3.63636 4C3.63636 4.88533 4.24545 5.6 5 5.6C5.75455 5.6 6.36364 4.88533 6.36364 4C6.36364 3.11467 5.75455 2.4 5 2.4Z" fill="#666666"/>
</svg>
